<?xml version="1.0" encoding="UTF-8"?>
<!DOCTYPE svg PUBLIC "-//W3C//DTD SVG 1.1//EN" "http://www.w3.org/Graphics/SVG/1.1/DTD/svg11.dtd">
<!-- Creator: CorelDRAW 2021 (64-Bit) -->
<svg xmlns="http://www.w3.org/2000/svg" xml:space="preserve" width="0.472819in" height="0.483213in" version="1.1" style="shape-rendering:geometricPrecision; text-rendering:geometricPrecision; image-rendering:optimizeQuality; fill-rule:evenodd; clip-rule:evenodd"
viewBox="0 0 64.16 65.57"
 xmlns:xlink="http://www.w3.org/1999/xlink"
 xmlns:xodm="http://www.corel.com/coreldraw/odm/2003">
 <defs>
  <style type="text/css">
   <![CDATA[
    .str0 {stroke:#201E1E;stroke-width:0.94;stroke-linecap:round;stroke-linejoin:round;stroke-miterlimit:2.61313}
    .fil0 {fill:none}
   ]]>
  </style>
 </defs>
 <g id="Layer_x0020_1">
  <metadata id="CorelCorpID_0Corel-Layer"/>
  <g id="_2416288656640">
   <path class="fil0 str0" d="M16.9 59.81c-9.79,-5.37 -16.43,-15.78 -16.43,-27.73 0,-17.46 14.15,-31.61 31.61,-31.61 17.46,0 31.61,14.15 31.61,31.61 0,8.01 -2.98,15.32 -7.88,20.88"/>
   <polygon class="fil0 str0" points="51.19,58.98 51.56,51.3 58.69,56.99 "/>
   <path class="fil0 str0" d="M36.88 56.72c-1.23,0.26 -4.34,4.78 -1.64,7.59 0.97,0.94 2.47,1.22 3.81,-0.19 2.54,-2.55 -2.01,-7.44 -2.17,-7.4z"/>
   <path class="fil0 str0" d="M28.19 51.43c-1.23,0.26 -4.34,4.78 -1.64,7.59 0.97,0.94 2.47,1.22 3.81,-0.19 2.54,-2.55 -2.01,-7.44 -2.17,-7.4z"/>
   <path class="fil0 str0" d="M25.47 37.39c1.45,8.83 4.68,3.39 3.9,11.21l6.95 0c-0.77,-7.59 4.05,-4.71 4.22,-13.18 0.01,-0.71 0.86,-8.17 1.13,-9.45 0.72,2.16 5.21,9.15 7.36,6.18 0.96,2.2 7.22,1.99 6.79,-4.41 1.63,-2.78 1.05,-15.16 -9.78,-11.19 -7.21,4.02 -5.03,-0.79 -9.92,-1.66 -2.95,-0.53 -4.81,-0.48 -9.49,0.55 -3.86,2.16 -5.3,3.29 -9.24,-0.26 -1.76,-1.59 -5.99,0.98 -7.21,3.34 -1.92,3.72 -0.77,5.19 -1.03,9.38 0.29,3.77 4.53,5.14 7.32,5.14 7.53,0 7.2,-9.68 7.67,-7.35 0.09,0.51 2.59,12.6 1.15,12.1 -0.07,-0.22 0.17,-0.35 0.17,-0.39zm14.34 -0.14c-7.7,1.44 -4.21,-16.85 1.56,-15.54 -1.6,-2.83 -14.16,-3.3 -17.44,0.73 8.14,2.77 7.19,13.89 1.61,15.32m29.39 -11.74c-4.23,-0.79 -6.4,0.78 -5.9,6.13l-1.04 0.74m0.28 -4.77c-9.74,-7.36 6.66,-13.71 3.98,-3.17m-35.22 8.06c0.34,-5.05 -2.95,-8.13 -7.66,-6.5m3.67 -0.3c0.5,-0.48 0.22,-3.05 0.81,-4.6 3.02,-8.03 6.75,0.11 5.37,3.18 -1.27,2.85 -3.06,2.82 -2.17,3.33"/>
  </g>
 </g>
</svg>
