<?xml version="1.0" encoding="UTF-8"?>
<!DOCTYPE svg PUBLIC "-//W3C//DTD SVG 1.1//EN" "http://www.w3.org/Graphics/SVG/1.1/DTD/svg11.dtd">
<!-- Creator: CorelDRAW 2021 (64-Bit) -->
<svg xmlns="http://www.w3.org/2000/svg" xml:space="preserve" width="0.476283in" height="0.476283in" version="1.1" style="shape-rendering:geometricPrecision; text-rendering:geometricPrecision; image-rendering:optimizeQuality; fill-rule:evenodd; clip-rule:evenodd"
viewBox="0 0 92.58 92.58"
 xmlns:xlink="http://www.w3.org/1999/xlink"
 xmlns:xodm="http://www.corel.com/coreldraw/odm/2003">
 <defs>
  <style type="text/css">
   <![CDATA[
    .fil1 {fill:#FEFEFE}
    .fil0 {fill:#FDE4D3}
    .fil3 {fill:#F5874F}
    .fil2 {fill:#F5874F}
    .fil4 {fill:#CB7349}
   ]]>
  </style>
 </defs>
 <g id="Layer_x0020_1">
  <metadata id="CorelCorpID_0Corel-Layer"/>
  <g id="_2415946558144">
   <circle class="fil0" cx="46.29" cy="46.29" r="46.29"/>
   <rect class="fil1" x="13.65" y="36.44" width="66.09" height="46.62"/>
   <g>
    <path class="fil2" d="M14.52 36.44l64.58 -0c0,12.88 0,25.76 0,38.64 0,2.32 0.65,6.34 -3.23,6.42 -3.21,0.07 -6.5,0 -9.72,0l-43.37 0c-3.22,0 -6.26,0.68 -7.76,-1.96 -0.69,-1.21 -0.49,-2.85 -0.49,-4.37 0,-12.91 0,-25.82 0,-38.73zm47.15 -17.06c0,1.07 -0.13,3.5 0.17,4.35 0.9,2.56 4.53,2.45 5.38,0.06 0.33,-0.91 0.18,-3.27 0.19,-4.4 1.06,0.46 2.09,2.97 1.25,5.02 -0.59,1.45 -2.05,2.75 -4.08,2.77 -2.09,0.02 -3.53,-1.27 -4.14,-2.7 -0.66,-1.53 -0.36,-3.43 0.71,-4.65l0.33 -0.31c0.15,-0.12 -0.03,-0.01 0.18,-0.13zm-36.79 -0c0,1.03 -0.12,3.57 0.17,4.36 0.89,2.43 4.42,2.58 5.38,0.03 0.33,-0.88 0.17,-3.26 0.19,-4.37 1.14,0.51 2.04,3.02 1.26,4.99 -1.46,3.67 -6.7,3.68 -8.23,0.1 -0.83,-1.94 -0.03,-4.27 1.22,-5.12zm53.37 -3.81l-10.83 -0.01c-0.05,-1.92 0.04,-3.86 -0.01,-5.78 -0.04,-1.63 -1.25,-2.92 -2.92,-2.9 -1.67,0.02 -2.81,1.34 -2.83,2.99 -0.03,1.89 0.04,3.8 -0.01,5.69l-31.03 0c-0.06,-1.84 0,-3.75 -0.01,-5.6 -0.01,-1.94 -0.97,-2.59 -2.41,-3.05 -1.84,-0.11 -3.19,0.94 -3.32,2.6 -0.14,1.87 0.03,4.11 -0.02,6.04 -2.35,0.09 -4.86,0.01 -7.23,0.01 -3.12,0 -5,0.15 -6.57,2.51 -1.02,1.53 -0.93,2.75 -0.93,4.55l0 54.65c0,1.06 -0.09,2.59 0.06,3.58 0.3,2.02 1.64,3.53 3.11,4.22 1.73,0.81 4.61,0.54 6.71,0.54l51.17 0c2.2,0 5.11,0.16 7.22,-0.02 2.11,-0.18 3.68,-1.54 4.41,-2.92 0.95,-1.8 0.65,-4.46 0.65,-6.68l0 -51.08c0,-2.33 0.3,-4.75 -0.75,-6.59 -0.81,-1.42 -2.29,-2.53 -4.48,-2.76z"/>
    <path class="fil2" d="M62.13 61.69c0.14,1.67 2,1.43 2.91,1.43 5.16,-0 5.83,0.68 5.83,-2.9 0,-1.31 0.11,-3.13 -0.01,-4.38 -0.06,-0.62 -0.44,-1.08 -0.88,-1.29 -0.61,-0.3 -5.7,-0.22 -6.39,-0.16 -1.75,0.16 -1.47,2.01 -1.47,2.9 0,1.33 -0.1,3.12 0.01,4.4z"/>
    <path class="fil2" d="M35.89 75.35c0.24,1.62 2.13,1.32 3.11,1.32 5.17,0 5.61,0.66 5.61,-3.15 0,-5.17 0.65,-5.59 -3.14,-5.59 -5.07,0 -5.61,-0.68 -5.61,3.12 0,1.13 -0.13,3.3 0.02,4.31z"/>
    <path class="fil2" d="M50.36 41.29c-1.49,0.25 -1.36,1.5 -1.36,2.98 0,5.06 -0.71,5.74 3.03,5.74 5.03,0 5.72,0.71 5.72,-2.99 0,-5.27 0.67,-5.75 -3.06,-5.75 -1.06,0 -3.43,-0.13 -4.32,0.02z"/>
    <path class="fil2" d="M49.04 75.45c0.3,1.37 1.75,1.23 3.17,1.23 0.97,0 3.5,0.12 4.3,-0.04 1.39,-0.28 1.24,-1.74 1.24,-3.2 0,-0.91 0.11,-3.57 -0.05,-4.29 -0.31,-1.37 -1.78,-1.21 -3.2,-1.21 -0.9,0 -3.56,-0.11 -4.27,0.04 -1.38,0.31 -1.24,1.68 -1.24,3.16 0,0.92 -0.12,3.58 0.04,4.31z"/>
    <path class="fil2" d="M24.12 41.28c-1.47,0.22 -1.39,1.49 -1.39,2.99 0,5.14 -0.69,5.74 3.06,5.74 1.1,0 3.4,0.13 4.35,-0.02 1.41,-0.22 1.34,-1.53 1.34,-2.96 0,-5.08 0.71,-5.75 -3.03,-5.75 -1.12,0 -3.35,-0.13 -4.33,0.02z"/>
    <path class="fil2" d="M37.24 41.28c-1.46,0.23 -1.38,1.5 -1.38,2.98 0,5.08 -0.7,5.74 3.04,5.74 4.99,0 5.71,0.71 5.71,-2.99 0,-5.14 0.71,-5.75 -3.05,-5.75 -1.09,0 -3.39,-0.13 -4.33,0.02z"/>
    <path class="fil2" d="M22.78 75.45c0.28,1.37 1.76,1.23 3.2,1.23 5.06,0 5.5,0.65 5.5,-3.25 0,-5.04 0.66,-5.5 -3.21,-5.5 -0.98,0 -3.47,-0.12 -4.27,0.04 -1.42,0.28 -1.27,1.77 -1.27,3.17 0,0.98 -0.12,3.51 0.04,4.31z"/>
   </g>
   <path class="fil3" d="M72.83 63.1c7.9,7.64 17.41,19.81 3.88,26.28 -3.68,0.81 -4.45,0.77 -8.04,-0.02 -12.55,-4.93 -4.86,-18.97 4.16,-26.26z"/>
   <path class="fil4" d="M83.23 82.73c-0.69,2.52 -2.67,4.81 -6.51,6.65 -3.68,0.81 -4.45,0.77 -8.04,-0.02 -10.34,-4.06 -6.94,-14.31 -0.37,-21.87 -3.87,6.61 -4.36,13.78 3.89,17.02 3.59,0.79 4.37,0.83 8.05,0.02 1.16,-0.56 2.15,-1.16 2.99,-1.79z"/>
   <g>
    <path class="fil3" d="M53.28 53.07c3.11,3.01 6.87,7.81 1.53,10.36 -1.45,0.32 -1.76,0.3 -3.17,-0.01 -4.95,-1.94 -1.92,-7.48 1.64,-10.35z"/>
    <path class="fil4" d="M57.38 60.81c-0.27,0.99 -1.05,1.9 -2.57,2.62 -1.45,0.32 -1.76,0.3 -3.17,-0.01 -4.08,-1.6 -2.74,-5.64 -0.15,-8.62 -1.52,2.6 -1.72,5.43 1.53,6.71 1.42,0.31 1.72,0.33 3.17,0.01 0.46,-0.22 0.85,-0.46 1.18,-0.71z"/>
   </g>
   <g>
    <path class="fil3" d="M40.23 53.07c3.11,3.01 6.87,7.81 1.53,10.36 -1.45,0.32 -1.76,0.3 -3.17,-0.01 -4.95,-1.94 -1.92,-7.48 1.64,-10.35z"/>
    <path class="fil4" d="M44.33 60.81c-0.27,0.99 -1.05,1.9 -2.57,2.62 -1.45,0.32 -1.76,0.3 -3.17,-0.01 -4.08,-1.6 -2.74,-5.64 -0.15,-8.62 -1.52,2.6 -1.72,5.43 1.53,6.71 1.42,0.31 1.72,0.33 3.17,0.01 0.46,-0.22 0.85,-0.46 1.18,-0.71z"/>
   </g>
   <g>
    <path class="fil3" d="M27.18 53.07c3.11,3.01 6.87,7.81 1.53,10.36 -1.45,0.32 -1.76,0.3 -3.17,-0.01 -4.95,-1.94 -1.92,-7.48 1.64,-10.35z"/>
    <path class="fil4" d="M31.28 60.81c-0.27,0.99 -1.05,1.9 -2.57,2.62 -1.45,0.32 -1.76,0.3 -3.17,-0.01 -4.08,-1.6 -2.74,-5.64 -0.15,-8.62 -1.52,2.6 -1.72,5.43 1.53,6.71 1.42,0.31 1.72,0.33 3.17,0.01 0.46,-0.22 0.85,-0.46 1.18,-0.71z"/>
   </g>
   <g>
    <path class="fil3" d="M66.33 39.21c3.11,3.01 6.87,7.81 1.53,10.36 -1.45,0.32 -1.76,0.3 -3.17,-0.01 -4.95,-1.94 -1.92,-7.48 1.64,-10.35z"/>
    <path class="fil4" d="M70.42 46.95c-0.27,0.99 -1.05,1.9 -2.57,2.62 -1.45,0.32 -1.76,0.3 -3.17,-0.01 -4.08,-1.6 -2.74,-5.64 -0.15,-8.63 -1.52,2.6 -1.72,5.43 1.53,6.71 1.42,0.31 1.72,0.33 3.17,0.01 0.46,-0.22 0.85,-0.46 1.18,-0.71z"/>
   </g>
  </g>
 </g>
</svg>
