<?xml version="1.0" encoding="UTF-8"?>
<!DOCTYPE svg PUBLIC "-//W3C//DTD SVG 1.1//EN" "http://www.w3.org/Graphics/SVG/1.1/DTD/svg11.dtd">
<!-- Creator: CorelDRAW 2021 (64-Bit) -->
<svg xmlns="http://www.w3.org/2000/svg" xml:space="preserve" width="0.472819in" height="0.483213in" version="1.1" style="shape-rendering:geometricPrecision; text-rendering:geometricPrecision; image-rendering:optimizeQuality; fill-rule:evenodd; clip-rule:evenodd"
viewBox="0 0 158.62 162.1"
 xmlns:xlink="http://www.w3.org/1999/xlink"
 xmlns:xodm="http://www.corel.com/coreldraw/odm/2003">
 <defs>
  <style type="text/css">
   <![CDATA[
    .str0 {stroke:#201E1E;stroke-width:2.33;stroke-linecap:round;stroke-linejoin:round;stroke-miterlimit:2.61313}
    .fil0 {fill:none}
    .fil3 {fill:#FAA954}
    .fil1 {fill:#F58634}
    .fil2 {fill:#F58634}
   ]]>
  </style>
 </defs>
 <g id="Layer_x0020_1">
  <metadata id="CorelCorpID_0Corel-Layer"/>
  <g id="_2416819084368">
   <path class="fil0 str0" d="M41.77 147.86c-24.2,-13.28 -40.61,-39 -40.61,-68.56 0,-43.16 34.99,-78.14 78.14,-78.14 43.16,0 78.15,34.99 78.15,78.14 0,19.79 -7.36,37.86 -19.48,51.63"/>
   <polygon class="fil0 str0" points="126.55,145.8 127.47,126.83 145.09,140.89 "/>
   <path class="fil1 str0" d="M91.17 140.23c-3.05,0.64 -10.73,11.82 -4.06,18.77 2.4,2.33 6.11,3.01 9.43,-0.47 6.27,-6.29 -4.97,-18.39 -5.37,-18.3z"/>
   <path class="fil1 str0" d="M69.68 127.15c-3.05,0.64 -10.74,11.82 -4.06,18.77 2.4,2.33 6.11,3.01 9.43,-0.47 6.27,-6.29 -4.97,-18.39 -5.37,-18.3z"/>
   <g>
    <polygon class="fil1" points="62.28,44.83 100,44.83 100,94.66 66.78,94.66 60.4,52.84 "/>
    <g>
     <path class="fil2" d="M64.19 89.79c3.59,21.83 11.56,8.38 9.65,27.71 5.73,0 11.46,0 17.18,0 -1.89,-18.77 10.02,-11.65 10.44,-32.58 0.03,-1.77 2.13,-20.19 2.79,-23.36 1.79,5.35 12.88,22.62 18.21,15.27 2.38,5.45 17.85,4.91 16.78,-10.89 4.04,-6.87 2.59,-37.48 -24.18,-27.67 -17.82,9.95 -12.44,-1.96 -24.51,-4.11 -7.29,-1.3 -11.89,-1.18 -23.47,1.35 -9.55,5.34 -13.1,8.14 -22.83,-0.65 -15.72,-14.18 -37.34,20.89 -20.37,31.44 0.73,9.32 11.2,12.71 18.09,12.71 18.62,0 17.8,-23.94 18.97,-18.17 0.22,1.27 6.39,31.14 2.85,29.91 -0.18,-0.53 0.42,-0.88 0.41,-0.96zm35.46 -0.34c-19.05,3.56 -10.42,-41.66 3.85,-38.43 -3.96,-6.99 -35.01,-8.15 -43.11,1.81 20.13,6.85 17.77,34.34 3.99,37.86l35.26 -1.25zm37.39 -27.78c-10.47,-1.95 -15.82,1.93 -14.58,15.15 -0.86,0.61 -1.72,1.22 -2.58,1.82l17.16 -16.97zm-16.46 5.17c-24.07,-18.2 16.46,-33.88 9.83,-7.84l-9.83 7.84zm-77.24 12.07c0.84,-12.47 -7.29,-20.11 -18.94,-16.08l18.94 16.08zm-9.86 -16.82c-18.64,-34.77 39.38,-15.44 9.92,4.74l-9.92 -4.74z"/>
     <path id="_1" class="fil0 str0" d="M64.19 89.79c3.59,21.83 11.56,8.38 9.65,27.71 5.73,0 11.46,0 17.18,0 -1.89,-18.77 10.02,-11.65 10.44,-32.58 0.03,-1.77 2.13,-20.19 2.79,-23.36 1.79,5.35 12.88,22.62 18.21,15.27 2.38,5.45 17.85,4.91 16.78,-10.89 4.04,-6.87 2.59,-37.48 -24.18,-27.67 -17.82,9.95 -12.44,-1.96 -24.51,-4.11 -7.29,-1.3 -11.89,-1.18 -23.47,1.35 -9.55,5.34 -13.1,8.14 -22.83,-0.65 -15.72,-14.18 -37.34,20.89 -20.37,31.44 0.73,9.32 11.2,12.71 18.09,12.71 18.62,0 17.8,-23.94 18.97,-18.17 0.22,1.27 6.39,31.14 2.85,29.91 -0.18,-0.53 0.42,-0.88 0.41,-0.96zm35.46 -0.34c-19.05,3.56 -10.42,-41.66 3.85,-38.43 -3.96,-6.99 -35.01,-8.15 -43.11,1.81 20.13,6.85 17.77,34.34 3.99,37.86m72.65 -29.03c-10.47,-1.95 -15.82,1.93 -14.58,15.15 -0.86,0.61 -1.72,1.22 -2.58,1.82m0.7 -11.8c-24.07,-18.2 16.46,-33.88 9.83,-7.84m-87.08 19.92c0.84,-12.47 -7.29,-20.11 -18.94,-16.08m9.08 -0.74c-18.64,-34.77 39.38,-15.44 9.92,4.74"/>
    </g>
    <g>
     <path class="fil3" d="M23.88 66.3c0.13,1.7 0.59,3.2 1.29,4.52l0.52 0.89c0.99,1.52 2.32,2.77 3.84,3.78 4.49,2.32 12.09,4.16 13.82,3.25 0.25,-0.13 0.38,-0.32 0.35,-0.58 -0.01,-0.17 -0.09,-0.36 -0.25,-0.58l-0.06 -0.09c-1.69,-2.65 0.67,-6.34 -5.33,-12.99 -0.21,-0.24 -0.42,-0.45 -0.62,-0.66 -0.22,-0.22 -0.43,-0.43 -0.64,-0.62 -1.47,-1.37 -2.73,-2.06 -3.94,-2.3 -1.84,-0.36 -3.57,0.3 -5.73,1.18 -0.76,0.31 -1.57,0.64 -2.47,0.97 -0.79,0.29 -1.65,0.57 -2.58,0.82 1.16,-0.3 1.08,1.7 1.79,2.42zm19.47 12.44c0.03,-0.42 0.04,-0.84 0.04,-1.25l-0.04 1.25zm-9.87 -16.63c-0.22,-0.41 -0.41,-0.8 -0.61,-1.19l0.61 1.19z"/>
    </g>
    <path class="fil3" d="M130.41 59.01c-2.01,2.59 -4.19,4.21 -6.1,7.14 -2.28,4.51 -2.58,10.76 -1.66,12.48 0.13,0.25 0.32,0.38 0.58,0.35 12.68,-1.32 9.97,1.18 14.9,-7.01 1.03,-1.72 1.34,-1.94 1.57,-3.15 0.35,-1.84 0.37,-4.37 -0.52,-6.52 -0.31,-0.76 -0.65,-1.57 -0.99,-2.46 -0.41,-1.1 -7.17,-1.15 -7.78,-0.82z"/>
   </g>
  </g>
 </g>
</svg>
