<?xml version="1.0" encoding="UTF-8"?>
<!DOCTYPE svg PUBLIC "-//W3C//DTD SVG 1.1//EN" "http://www.w3.org/Graphics/SVG/1.1/DTD/svg11.dtd">
<!-- Creator: CorelDRAW 2021 (64-Bit) -->
<svg xmlns="http://www.w3.org/2000/svg" xml:space="preserve" width="0.476283in" height="0.476283in" version="1.1" style="shape-rendering:geometricPrecision; text-rendering:geometricPrecision; image-rendering:optimizeQuality; fill-rule:evenodd; clip-rule:evenodd"
viewBox="0 0 1606.67 1628.76"
 xmlns:xlink="http://www.w3.org/1999/xlink"
 xmlns:xodm="http://www.corel.com/coreldraw/odm/2003">
 <defs>
  <style type="text/css">
   <![CDATA[
    .str0 {stroke:#373435;stroke-width:32.3;stroke-linecap:round;stroke-linejoin:round;stroke-miterlimit:2.61313}
    .fil0 {fill:none}
    .fil1 {fill:#FAA954}
    .fil2 {fill:#9D98CA}
   ]]>
  </style>
 </defs>
 <g id="Layer_x0020_1">
  <metadata id="CorelCorpID_0Corel-Layer"/>
  <g id="_2416820944464">
   <path class="fil0 str0" d="M389.77 426.79c36.73,-39.81 78.08,-90.06 148.34,-174.97 119.48,7.45 111.54,0.44 217.53,12.56 -112.65,312.03 -181.8,365.59 -501.17,530.53 -16.08,-99.07 -13.62,-149.7 -13.62,-232.36 35.87,-29.45 63.01,-52.34 86.82,-74"/>
   <path class="fil1 str0" d="M1065.1 1394.04c-119.48,-7.45 -141.33,-4.19 -247.32,-16.32 112.65,-312.03 211.59,-361.84 530.97,-526.77 16.08,99.07 13.62,149.7 13.62,232.36 -128.57,105.53 -144.9,126.59 -297.27,310.73z"/>
   <path class="fil0 str0" d="M1462.21 779c-424.78,253.22 -541.28,275.52 -627.27,600.63 -36.51,80.94 -64.33,102.23 -134.08,151.84 -474,241.22 -786.05,-298.32 -614.87,-604.75 41.57,-57.74 46.79,-66.29 101.56,-96.19 288.7,-157.79 428.35,-174.2 589.53,-563.78 29.48,-71.21 32.14,-74.99 88.79,-133.2 369.24,-296.76 868.33,202.14 647.65,575.67"/>
   <path class="fil1 str0" d="M1517.72 767.06c-397.77,279.36 -516.25,291.3 -630.25,607.69 -36.51,80.94 -70.34,107.11 -140.08,156.71 -565.36,338.99 -968.2,-473.1 -573.03,-713.9 288.17,-179.68 401.03,-137.23 556.55,-539.41 333.55,-612.99 1097.94,-26.33 786.82,488.91z"/>
   <path class="fil0 str0" d="M238.62 1306.29c-91.87,-127.14 -98.72,-312.27 68.94,-412.6 400.44,-157.43 486.82,-303.48 561.31,-531.94 22.74,-69.82 20.36,-83.87 86.08,-128.55 249.28,-169.55 607.05,125.09 451,416.48 -27.98,52.23 -45.94,67.46 -96.52,97.29 -173.52,102.44 -330.38,68.85 -539.89,504.49 -23.07,47.94 -23.64,63.14 -64.7,99.27 -150.23,132.17 -307.18,105.7 -411.01,15.95"/>
   <path class="fil2 str0" d="M236.04 1307.4c-91.87,-127.14 -98.72,-312.27 68.94,-412.6 400.44,-157.43 486.82,-303.48 561.31,-531.94 22.74,-69.82 20.36,-83.87 86.08,-128.55 249.28,-169.55 607.05,125.09 451,416.48 -27.98,52.23 -45.94,67.46 -96.52,97.29 -173.52,102.44 -330.38,68.85 -539.89,504.49 -23.07,47.94 -24.7,62.02 -64.7,99.27 -151.79,141.4 -362.37,90.13 -466.24,-44.44z"/>
   <line class="fil0 str0" x1="1158.86" y1="186.63" x2="1174.24" y2= "810.79" />
   <line class="fil0 str0" x1="954.96" y1="233.2" x2="979.31" y2= "934.47" />
   <line class="fil0 str0" x1="633.37" y1="722.69" x2="641.44" y2= "1394.04" />
   <line class="fil0 str0" x1="443.73" y1="1438.52" x2="451.79" y2= "831.06" />
   <line class="fil0 str0" x1="182.02" y1="1183.23" x2="755.63" y2= "1183.93" />
   <line class="fil0 str0" x1="218.55" y1="974.53" x2="882.43" y2= "982.02" />
   <line class="fil0 str0" x1="722.95" y1="640.84" x2="1405.96" y2= "649.68" />
   <line class="fil0 str0" x1="1438.61" y1="448.11" x2="840.8" y2= "441.17" />
   <path class="fil1" d="M546.9 269.73c-8.79,0 -159.92,186.34 -207,230.56l-87.97 74.07 9.98 171.03c3.31,2.12 25.56,-11.9 49.26,-26.2 149.83,-59.97 205.75,-108.3 253.82,-162.41 92,-103.59 93.83,-165.17 150.27,-279.86l-55.61 -4.43 -112.75 -2.77z"/>
  </g>
 </g>
</svg>
