<?xml version="1.0" encoding="UTF-8"?>
<!DOCTYPE svg PUBLIC "-//W3C//DTD SVG 1.1//EN" "http://www.w3.org/Graphics/SVG/1.1/DTD/svg11.dtd">
<!-- Creator: CorelDRAW 2021 (64-Bit) -->
<svg xmlns="http://www.w3.org/2000/svg" xml:space="preserve" width="0.335661in" height="0.339783in" version="1.1" style="shape-rendering:geometricPrecision; text-rendering:geometricPrecision; image-rendering:optimizeQuality; fill-rule:evenodd; clip-rule:evenodd"
viewBox="0 0 112.43 113.81"
 xmlns:xlink="http://www.w3.org/1999/xlink"
 xmlns:xodm="http://www.corel.com/coreldraw/odm/2003">
 <defs>
  <style type="text/css">
   <![CDATA[
    .str0 {stroke:#373435;stroke-width:2.33;stroke-linecap:round;stroke-linejoin:round;stroke-miterlimit:2.61313}
    .fil0 {fill:none}
   ]]>
  </style>
 </defs>
 <g id="Layer_x0020_1">
  <metadata id="CorelCorpID_0Corel-Layer"/>
  <g id="_2416811798240">
   <path class="fil0 str0" d="M26.46 28.77c2.65,-2.87 5.62,-6.49 10.68,-12.6 8.6,0.54 8.03,0.03 15.67,0.9 -8.11,22.47 -13.09,26.33 -36.09,38.21 -1.16,-7.13 -0.98,-10.78 -0.98,-16.73 2.58,-2.12 4.54,-3.77 6.25,-5.33"/>
   <path class="fil0 str0" d="M75.09 98.43c-8.6,-0.54 -10.18,-0.3 -17.81,-1.17 8.11,-22.47 15.24,-26.06 38.24,-37.94 1.16,7.13 0.98,10.78 0.98,16.73 -9.26,7.6 -10.44,9.12 -21.41,22.38z"/>
   <path class="fil0 str0" d="M103.69 54.14c-30.59,18.24 -38.98,19.84 -45.17,43.25 -2.63,5.83 -4.63,7.36 -9.66,10.93 -34.14,17.37 -56.61,-21.48 -44.28,-43.55 2.99,-4.16 3.37,-4.77 7.31,-6.93 20.79,-11.36 30.85,-12.54 42.45,-40.6 2.12,-5.13 2.31,-5.4 6.39,-9.59 26.59,-21.37 62.53,14.56 46.64,41.46"/>
   <path class="fil0 str0" d="M15.57 92.11c-6.62,-9.16 -7.11,-22.49 4.96,-29.71 28.84,-11.34 35.06,-21.86 40.42,-38.31 1.64,-5.03 1.47,-6.04 6.2,-9.26 17.95,-12.21 43.72,9.01 32.48,29.99 -2.02,3.76 -3.31,4.86 -6.95,7.01 -12.5,7.38 -23.79,4.96 -38.88,36.33 -1.66,3.45 -1.7,4.55 -4.66,7.15 -10.82,9.52 -22.12,7.61 -29.6,1.15"/>
   <line class="fil0 str0" x1="81.84" y1="11.48" x2="82.95" y2= "56.43" />
   <line class="fil0 str0" x1="67.16" y1="14.83" x2="68.91" y2= "65.33" />
   <line class="fil0 str0" x1="44" y1="50.08" x2="44.58" y2= "98.43" />
   <line class="fil0 str0" x1="30.34" y1="101.63" x2="30.92" y2= "57.89" />
   <line class="fil0 str0" x1="11.5" y1="83.25" x2="52.8" y2= "83.3" />
   <line class="fil0 str0" x1="14.13" y1="68.22" x2="61.93" y2= "68.76" />
   <line class="fil0 str0" x1="50.45" y1="44.19" x2="99.64" y2= "44.83" />
   <line class="fil0 str0" x1="101.99" y1="30.31" x2="58.94" y2= "29.81" />
  </g>
 </g>
</svg>
