<?xml version="1.0" encoding="UTF-8"?>
<!DOCTYPE svg PUBLIC "-//W3C//DTD SVG 1.1//EN" "http://www.w3.org/Graphics/SVG/1.1/DTD/svg11.dtd">
<!-- Creator: CorelDRAW 2021 (64-Bit) -->
<svg xmlns="http://www.w3.org/2000/svg" xml:space="preserve" width="0.399461in" height="0.399236in" version="1.1" style="shape-rendering:geometricPrecision; text-rendering:geometricPrecision; image-rendering:optimizeQuality; fill-rule:evenodd; clip-rule:evenodd"
viewBox="0 0 170.04 169.95"
 xmlns:xlink="http://www.w3.org/1999/xlink"
 xmlns:xodm="http://www.corel.com/coreldraw/odm/2003">
 <defs>
  <style type="text/css">
   <![CDATA[
    .str0 {stroke:#201E1E;stroke-width:2.96;stroke-linecap:round;stroke-linejoin:round;stroke-miterlimit:2.61313}
    .fil0 {fill:none}
    .fil1 {fill:#201E1E;fill-rule:nonzero}
   ]]>
  </style>
 </defs>
 <g id="Layer_x0020_1">
  <metadata id="CorelCorpID_0Corel-Layer"/>
  <g id="_2416824298720">
   <path class="fil0 str0" d="M85.43 41.99c25.1,24.28 55.34,62.95 12.34,83.52 -11.69,2.58 -14.15,2.43 -25.57,-0.07 -39.9,-15.66 -15.44,-60.3 13.23,-83.45z"/>
   <g>
    <path class="fil1" d="M94.6 165.9c0.8,-0.14 1.57,0.39 1.71,1.19 0.14,0.8 -0.39,1.57 -1.19,1.71l-0.52 -2.91zm-64.49 -145.41l1.92 2.25 -5.87 5.42 -5.15 5.64 -4.45 5.83 -3.78 5.99 -3.13 6.12 -2.51 6.23 -1.9 6.31 -1.32 6.37 -0.75 6.39 -0.21 6.39 0.32 6.36 0.82 6.31 1.3 6.22 1.77 6.11 2.21 5.96 2.63 5.79 3.04 5.59 3.42 5.36 3.78 5.1 4.12 4.81 4.44 4.49 4.73 4.15 5.01 3.77 5.26 3.37 5.5 2.94 5.71 2.48 5.9 1.99 6.07 1.47 6.22 0.94 6.36 0.36 6.47 -0.23 6.57 -0.86 0.52 2.91 -6.84 0.9 -6.75 0.24 -6.63 -0.38 -6.49 -0.97 -6.32 -1.54 -6.14 -2.07 -5.93 -2.57 -5.7 -3.05 -5.46 -3.49 -5.19 -3.9 -4.9 -4.29 -4.58 -4.64 -4.26 -4.97 -3.9 -5.27 -3.53 -5.53 -3.13 -5.77 -2.72 -5.98 -2.29 -6.16 -1.83 -6.32 -1.35 -6.44 -0.85 -6.53 -0.33 -6.6 0.22 -6.64 0.78 -6.64 1.37 -6.62 1.98 -6.56 2.61 -6.48 3.25 -6.36 3.92 -6.21 4.61 -6.04 5.32 -5.83 6.05 -5.59zm0.11 1.85l-15.43 1.4 10.49 -8.93 16.28 -2.13 -4.7 15.74 -10.49 8.93 3.85 -15zm-0.11 -1.85c0.62,-0.53 1.56,-0.45 2.08,0.17 0.53,0.62 0.45,1.56 -0.17,2.08l-1.92 -2.25z"/>
   </g>
   <g>
    <path class="fil1" d="M75.45 4.05c-0.8,0.14 -1.57,-0.39 -1.71,-1.19 -0.14,-0.8 0.39,-1.57 1.19,-1.71l0.52 2.91zm64.49 145.41l-1.92 -2.25 5.87 -5.42 5.15 -5.64 4.45 -5.83 3.78 -5.99 3.13 -6.12 2.51 -6.23 1.9 -6.31 1.32 -6.37 0.75 -6.39 0.21 -6.39 -0.32 -6.36 -0.82 -6.31 -1.3 -6.22 -1.77 -6.11 -2.21 -5.96 -2.63 -5.79 -3.04 -5.59 -3.42 -5.36 -3.78 -5.1 -4.12 -4.81 -4.44 -4.49 -4.73 -4.15 -5.01 -3.77 -5.26 -3.37 -5.5 -2.94 -5.71 -2.48 -5.9 -1.99 -6.07 -1.47 -6.22 -0.94 -6.36 -0.36 -6.47 0.23 -6.57 0.86 -0.52 -2.91 6.84 -0.9 6.75 -0.24 6.63 0.38 6.49 0.97 6.32 1.54 6.14 2.07 5.93 2.57 5.7 3.05 5.46 3.49 5.19 3.9 4.9 4.29 4.58 4.64 4.26 4.97 3.9 5.27 3.53 5.53 3.14 5.77 2.72 5.98 2.29 6.16 1.83 6.32 1.35 6.44 0.85 6.53 0.33 6.6 -0.22 6.64 -0.78 6.64 -1.37 6.62 -1.98 6.56 -2.61 6.48 -3.25 6.36 -3.92 6.21 -4.61 6.04 -5.32 5.83 -6.05 5.59zm-0.11 -1.85l15.43 -1.4 -10.49 8.93 -16.28 2.13 4.7 -15.74 10.49 -8.93 -3.85 15zm0.11 1.85c-0.62,0.53 -1.56,0.45 -2.08,-0.17 -0.53,-0.62 -0.45,-1.56 0.17,-2.08l1.92 2.25z"/>
   </g>
  </g>
 </g>
</svg>
