<?xml version="1.0" encoding="UTF-8"?>
<!DOCTYPE svg PUBLIC "-//W3C//DTD SVG 1.1//EN" "http://www.w3.org/Graphics/SVG/1.1/DTD/svg11.dtd">
<!-- Creator: CorelDRAW 2021 (64-Bit) -->
<svg xmlns="http://www.w3.org/2000/svg" xml:space="preserve" width="0.35661in" height="0.389657in" version="1.1" style="shape-rendering:geometricPrecision; text-rendering:geometricPrecision; image-rendering:optimizeQuality; fill-rule:evenodd; clip-rule:evenodd"
viewBox="0 0 45.37 49.57"
 xmlns:xlink="http://www.w3.org/1999/xlink"
 xmlns:xodm="http://www.corel.com/coreldraw/odm/2003">
 <defs>
  <style type="text/css">
   <![CDATA[
    .str0 {stroke:#201E1E;stroke-width:0.88;stroke-linecap:round;stroke-linejoin:round;stroke-miterlimit:2.61313}
    .fil0 {fill:none}
    .fil1 {fill:#201E1E}
   ]]>
  </style>
 </defs>
 <g id="Layer_x0020_1">
  <metadata id="CorelCorpID_0Corel-Layer"/>
  <g id="_2416820967168">
   <path class="fil0 str0" d="M5.47 13.1c-0.65,-15.85 17.19,-16.36 20.44,-4.08 -3.43,15.39 -2.58,18.39 0.03,30.07 -2.12,15.83 -21.88,10.88 -19.93,-0.53 2.84,-10.5 2.65,-18.61 -0.55,-25.47z"/>
   <path class="fil0 str0" d="M20.13 26.53c-0.03,2.66 -0.03,5.55 -0.01,9.02 0.17,5.45 -8.73,4.57 -8.93,0.2 0.03,-12.03 -0.95,-17.97 -0.44,-24.04 -0.14,-4.49 9.67,-5.99 9.6,-0.02 -0.03,2.71 -0.07,5.06 -0.11,7.31"/>
   <path class="fil0 str0" d="M30.28 32.12c-2.52,1.92 -2.59,2.93 -5.04,3.83 -2.86,-8.67 -2.55,-15.26 0.17,-22.75 2.11,0.72 2.77,1.13 4.79,1.92 1.13,5.76 1.36,12.19 0.08,17z"/>
   <path class="fil0 str0" d="M1.31 32.33c2.52,1.92 2.85,2.97 5.3,3.87 1.9,-9.06 1.81,-15.13 -0.92,-22.62 -2.11,0.72 -2.28,0.96 -4.3,1.75 -1.13,5.76 -1.36,12.19 -0.08,17z"/>
   <circle class="fil1" cx="20.18" cy="23.23" r="0.97"/>
   <path class="fil0 str0" d="M40.98 27.64c2.92,2.82 6.44,7.32 1.43,9.71 -1.36,0.3 -1.65,0.28 -2.97,-0.01 -4.64,-1.82 -1.8,-7.01 1.54,-9.71z"/>
   <circle class="fil1" cx="40.97" cy="24.58" r="0.97"/>
   <circle class="fil1" cx="40.97" cy="20.55" r="0.97"/>
   <circle class="fil1" cx="40.97" cy="16.51" r="0.97"/>
  </g>
 </g>
</svg>
