<?xml version="1.0" encoding="UTF-8"?>
<!DOCTYPE svg PUBLIC "-//W3C//DTD SVG 1.1//EN" "http://www.w3.org/Graphics/SVG/1.1/DTD/svg11.dtd">
<!-- Creator: CorelDRAW 2021 (64-Bit) -->
<svg xmlns="http://www.w3.org/2000/svg" xml:space="preserve" width="0.476283in" height="0.476283in" version="1.1" style="shape-rendering:geometricPrecision; text-rendering:geometricPrecision; image-rendering:optimizeQuality; fill-rule:evenodd; clip-rule:evenodd"
viewBox="0 0 38.67 42.37"
 xmlns:xlink="http://www.w3.org/1999/xlink"
 xmlns:xodm="http://www.corel.com/coreldraw/odm/2003">
 <defs>
  <style type="text/css">
   <![CDATA[
    .str0 {stroke:#373435;stroke-width:0.88;stroke-linecap:round;stroke-linejoin:round;stroke-miterlimit:2.61313}
    .fil1 {fill:none}
    .fil3 {fill:#FEFEFE}
    .fil2 {fill:#FEEBD7}
    .fil0 {fill:#FAA954}
    .fil4 {fill:#9D98CA}
    .fil5 {fill:#201E1E;fill-rule:nonzero}
   ]]>
  </style>
 </defs>
 <g id="Layer_x0020_1">
  <metadata id="CorelCorpID_0Corel-Layer"/>
  <g id="_2416824265648">
   <path class="fil0 str0" d="M19.38 2.85c1.39,-0.12 2.63,-2.7 3.93,-2.34 6.74,1.91 11.7,8.47 11.7,16.27 0,9.3 -7.05,16.84 -15.76,16.84 -8.7,0 -15.75,-7.54 -15.75,-16.84 0,-7.87 5.05,-14.48 11.88,-16.32 1.24,-0.33 3.21,2.46 4,2.39z"/>
   <path class="fil1 str0" d="M9.47 3.02c3.89,-2.61 7.38,-3.48 9.9,-0.17 3.02,-5.17 12.85,-0.18 14.68,8.71"/>
   <path class="fil1 str0" d="M8.45 4.45c-2.35,2.06 -4.37,6.22 -4.78,9.27 0.69,13.76 4.2,16.03 8.54,18.85"/>
   <path class="fil2 str0" d="M19.3 7.48c-3.9,5.41 -8.16,8.72 -13.22,7.24 0.1,-1.05 0.2,-2.11 0.3,-3.16 -2.39,0.59 -2.41,1.66 -3.62,4.41 0.91,2.54 2.41,1.69 3.62,2.54 1.29,5.26 5.63,8.52 13.22,9.64 7.97,-1.24 11.55,-4.67 12.03,-9.64 1.09,0.04 2.29,-0.26 4.21,-2.98 -0.14,-2.19 -1.21,-3.55 -3.32,-3.97 -0.1,1.18 -0.2,2.35 -0.3,3.53 -5.37,0.27 -9.71,-2.17 -12.92,-7.6z"/>
   <path class="fil1 str0" d="M35 13.5c-0.36,7.21 -1.5,11.26 -3.12,13.89m-1.02 1.42c-1.28,1.52 -2.78,2.49 -4.39,3.54"/>
   <polygon class="fil0 str0" points="26.47,35.77 26.05,32.35 23.37,32.35 23.37,34.34 20.97,36.88 22.67,39.5 "/>
   <polygon class="fil0 str0" points="12.2,35.77 12.62,32.35 15.3,32.35 15.3,34.34 18.45,37.85 16.26,39.7 "/>
   <polygon class="fil3" points="15.3,34.1 15.3,32.35 12.62,32.35 15.41,28.15 23.29,28.15 26.41,32.18 23.37,32.35 23.37,34.34 20.97,36.88 17.7,37.01 "/>
   <path class="fil1 str0" d="M19.24 28.1c-1.28,0.02 -2.55,0.04 -3.83,0.06 -1.43,0.48 -2.46,2.06 -3.2,4.42 0,0.83 0,1.66 0,2.49 0.22,1.38 1.1,2.71 3.2,3.92 0,0.98 0,1.97 0,2.95 2.42,0 5.54,0 7.96,0 0.01,-0.93 -0.11,-2.25 0.02,-3.06 0.97,-0.72 2.43,-1.55 3.08,-3.11 0,-1.14 0,-2.28 0,-3.41 -0.62,-1.8 -1.48,-3.29 -2.77,-4.2 -1.49,-0.02 -2.97,-0.04 -4.46,-0.06z"/>
   <path class="fil4 str0" d="M15.41 41.93l0 -2.95c1.95,0.45 2.74,-0.26 2.4,-2.1l2.72 0c0.22,2 1.14,2.87 2.81,2.57l0.03 2.48 -7.96 0z"/>
   <polygon class="fil0 str0" points="4.69,37.01 6.2,35.93 8.97,36.84 10.06,36.47 7.45,32.39 5.69,32.54 3.67,30.24 0.44,33.62 "/>
   <polygon class="fil0 str0" points="33.99,37.01 32.47,35.93 29.7,36.84 28.62,36.47 31.22,32.39 32.99,32.54 35,30.24 38.24,33.62 "/>
   <ellipse class="fil4 str0" cx="19.25" cy="17.82" rx="1.73" ry="1.81"/>
   <ellipse class="fil0" cx="12.94" cy="19.15" rx="2.37" ry="1.81"/>
   <ellipse class="fil0" cx="25.56" cy="19.15" rx="2.37" ry="1.81"/>
   <path class="fil5" d="M13.15 16.34c-0.29,-0.23 -0.42,-0.4 -0.34,-0.58 0.09,-0.2 0.46,-0.24 0.82,-0.09 0.66,0.28 1.17,0.94 1.67,1.59 -0.82,0.09 -1.64,0.17 -2.3,-0.11 -0.37,-0.16 -0.59,-0.45 -0.5,-0.65 0.08,-0.19 0.28,-0.21 0.66,-0.16z"/>
   <path class="fil5" d="M25.35 16.34c0.29,-0.23 0.42,-0.4 0.34,-0.58 -0.09,-0.2 -0.46,-0.24 -0.82,-0.09 -0.66,0.28 -1.17,0.94 -1.67,1.59 0.82,0.09 1.64,0.17 2.3,-0.11 0.37,-0.16 0.59,-0.45 0.5,-0.65 -0.08,-0.19 -0.28,-0.21 -0.66,-0.16z"/>
  </g>
 </g>
</svg>
